<svg width="40" height="14" viewBox="0 0 40 14" fill="none" xmlns="http://www.w3.org/2000/svg">
<circle cx="34" cy="7" r="6" fill="white"/>
<ellipse cx="34" cy="7" rx="6" ry="7" fill="white"/>
<ellipse cx="24" cy="7" rx="6" ry="7" fill="white"/>
<ellipse cx="6" cy="7" rx="6" ry="7" fill="white"/>
<ellipse cx="15" cy="7" rx="6" ry="7" fill="white"/>
<path d="M31.2812 11L32.793 4.17969H32.9688L33.6719 7.46094L32.8984 11H31.2812ZM33.7773 10.0039L34.1289 8.38672H34.5508L33.3086 2.79688H34.9375L36.8711 11H35.2305L34.9961 10.0039H33.7773Z" fill="#476F82"/>
<path d="M14.6738 11V2.79688H16.3262V11H14.6738Z" fill="#476F82"/>
<path d="M13.6738 11V2.79688H15.3262V11H13.6738Z" fill="#476F82"/>
<path d="M3.49219 11V2.79688H5.13281V11H3.49219ZM5.77734 11V9.55859H5.83594C6.30469 9.55859 6.61719 9.36328 6.77344 8.97266C6.82812 8.84766 6.85547 8.71875 6.85547 8.58594C6.85547 8.19531 6.69922 7.91406 6.38672 7.74219C6.23047 7.65625 6.05859 7.61328 5.87109 7.61328H5.77734V6.18359H5.87109C6.30859 6.18359 6.60938 5.99609 6.77344 5.62109C6.82812 5.48828 6.85547 5.35156 6.85547 5.21094C6.85547 4.82812 6.69531 4.54688 6.375 4.36719C6.21094 4.28125 6.03125 4.23828 5.83594 4.23828H5.77734V2.79688H6.05859C7.07422 2.79688 7.78906 3.16797 8.20312 3.91016C8.39844 4.26953 8.49609 4.66406 8.49609 5.09375C8.49609 5.77344 8.28906 6.32422 7.875 6.74609C7.8125 6.80078 7.75391 6.85156 7.69922 6.89844C8.15234 7.23438 8.41406 7.74609 8.48438 8.43359C8.49219 8.52734 8.49609 8.61719 8.49609 8.70312C8.49609 9.46094 8.23047 10.0547 7.69922 10.4844C7.26172 10.8281 6.71484 11 6.05859 11H5.77734Z" fill="#476F82"/>
<path d="M20.4141 11V5.79688H20.5195L22.0664 9.51172V11H20.4141ZM20.4141 3.875V2.79688H21.7031L23.9414 8.22266L25.1836 5.42188H25.3008V9.23047L24.5156 11H23.3789L20.4141 3.875ZM25.9336 11V2.79688H27.5859V11H25.9336Z" fill="#476F82"/>
<line x1="13.1213" y1="4.51493" x2="17.1213" y2="5.51493" stroke="white"/>
</svg>
